<svg id="Ebene_1" data-name="Ebene 1" xmlns="http://www.w3.org/2000/svg" viewBox="0 0 309.44 309.44"><defs><style>.cls-1{fill:#fff}.cls-2,.cls-3{fill:#5b5b5b;}.cls-3{fill-rule:evenodd;}</style></defs><title>FIDULA-Logo-footer</title><rect class="cls-1" width="309.44" height="309.44"/><path class="cls-2" d="M431.34,667.44H415.41l7.9-22.84h0Zm-3.64-27.83a2.16,2.16,0,0,0-.39-.65,1.54,1.54,0,0,0-.71-.41,6.18,6.18,0,0,0-1.21-.2c-.5,0-1.12-.05-1.88-.05s-1.28,0-1.75.05a5.52,5.52,0,0,0-1.13.2,1.49,1.49,0,0,0-.68.39,1.86,1.86,0,0,0-.37.64l-15.36,42.56a4,4,0,0,0-.3,1.25.85.85,0,0,0,.25.73,1.62,1.62,0,0,0,.91.33,11.11,11.11,0,0,0,1.68.1,13.91,13.91,0,0,0,1.62-.08,3.09,3.09,0,0,0,.95-.22,1.36,1.36,0,0,0,.52-.4,1.62,1.62,0,0,0,.28-.54l3.75-11h19.06l3.93,11.16a2.87,2.87,0,0,0,.29.53,1.23,1.23,0,0,0,.51.34,4.92,4.92,0,0,0,1,.17c.43,0,1,.06,1.75.06a15.82,15.82,0,0,0,1.75-.08,1.7,1.7,0,0,0,.94-.31.83.83,0,0,0,.26-.72,4.27,4.27,0,0,0-.29-1.27Zm-35.41,40.86a2.46,2.46,0,0,0-.24-.79,1.27,1.27,0,0,0-.39-.46.89.89,0,0,0-.54-.16H374.69V639.43a.79.79,0,0,0-.15-.49.88.88,0,0,0-.49-.34,4.94,4.94,0,0,0-.94-.21,9.85,9.85,0,0,0-1.47-.09,10,10,0,0,0-1.45.09,4.72,4.72,0,0,0-.95.21.94.94,0,0,0-.51.34.85.85,0,0,0-.13.49v42.43a2.27,2.27,0,0,0,.72,1.92,2.5,2.5,0,0,0,1.54.56h20.26a.83.83,0,0,0,.54-.17,1.14,1.14,0,0,0,.39-.5,2.7,2.7,0,0,0,.24-.8,9.77,9.77,0,0,0,.07-1.19,10,10,0,0,0-.07-1.21m-45.43-41a.8.8,0,0,0-.16-.49,1.09,1.09,0,0,0-.5-.34,4.53,4.53,0,0,0-.92-.21,9.6,9.6,0,0,0-1.44-.09,10.13,10.13,0,0,0-1.47.09,4.82,4.82,0,0,0-.93.21.85.85,0,0,0-.49.34.79.79,0,0,0-.15.49v28a17,17,0,0,1-.76,5.38,10.52,10.52,0,0,1-2.19,3.87,9.15,9.15,0,0,1-3.51,2.34,13.6,13.6,0,0,1-4.73.77A12.88,12.88,0,0,1,325,679a9,9,0,0,1-3.54-2.37,10.18,10.18,0,0,1-2.25-4,17.75,17.75,0,0,1-.79-5.56V639.43a.79.79,0,0,0-.14-.49.89.89,0,0,0-.48-.34,4.33,4.33,0,0,0-.93-.21,12.13,12.13,0,0,0-2.95,0,4.75,4.75,0,0,0-.91.21.91.91,0,0,0-.5.34.86.86,0,0,0-.14.49v28.44a21,21,0,0,0,1.21,7.43,14,14,0,0,0,3.43,5.37,14.5,14.5,0,0,0,5.35,3.24,20.72,20.72,0,0,0,6.9,1.1,21.91,21.91,0,0,0,7.41-1.17,14.57,14.57,0,0,0,5.51-3.44,15.09,15.09,0,0,0,3.49-5.54,21.1,21.1,0,0,0,1.23-7.46Zm-60.93,29.65a14.6,14.6,0,0,1-3,5.69,12.1,12.1,0,0,1-5,3.37,21.76,21.76,0,0,1-7.4,1.09H264.2V643.58h6.2a19.68,19.68,0,0,1,7.76,1.3,13.26,13.26,0,0,1,5,3.65,14.7,14.7,0,0,1,2.89,5.55,24.69,24.69,0,0,1,.92,6.92,28.75,28.75,0,0,1-1,8.08m6-17.61a18.78,18.78,0,0,0-4.2-7,18.48,18.48,0,0,0-6.89-4.43,28.76,28.76,0,0,0-10.06-1.54H260.39a2.46,2.46,0,0,0-1.54.55,2.26,2.26,0,0,0-.74,1.93v40.87a2.25,2.25,0,0,0,.74,1.92,2.48,2.48,0,0,0,1.54.56h9.7a31.45,31.45,0,0,0,10.13-1.46,18.27,18.27,0,0,0,7.17-4.37,18.93,18.93,0,0,0,4.44-7.37,31.94,31.94,0,0,0,1.53-10.39,27.68,27.68,0,0,0-1.45-9.28m-55.64-12a.79.79,0,0,0-.14-.49.87.87,0,0,0-.5-.34,4.64,4.64,0,0,0-.93-.21,9.94,9.94,0,0,0-1.47-.09,9.4,9.4,0,0,0-1.4.09,5.39,5.39,0,0,0-1,.21,1,1,0,0,0-.53.34.74.74,0,0,0-.16.49v44a.91.91,0,0,0,.14.49,1,1,0,0,0,.5.34,5.83,5.83,0,0,0,1,.2,10.71,10.71,0,0,0,2.92,0,5.6,5.6,0,0,0,.93-.2,1,1,0,0,0,.5-.34.83.83,0,0,0,.14-.49Zm-25.06.51a2.72,2.72,0,0,0-.25-.83,1.21,1.21,0,0,0-.41-.45.85.85,0,0,0-.48-.15H189.46a2.46,2.46,0,0,0-1.53.55,2.26,2.26,0,0,0-.74,1.93v42.43a.84.84,0,0,0,.15.47.9.9,0,0,0,.49.36,5.83,5.83,0,0,0,1,.2,10.85,10.85,0,0,0,2.94,0,5.94,5.94,0,0,0,.92-.2,1,1,0,0,0,.5-.36.9.9,0,0,0,.13-.47V664.33h15.87a.86.86,0,0,0,.48-.16,1.55,1.55,0,0,0,.41-.46,2,2,0,0,0,.24-.78,7.7,7.7,0,0,0,.07-1.15,8.33,8.33,0,0,0-.07-1.23,1.89,1.89,0,0,0-.24-.76,1.19,1.19,0,0,0-.41-.4.9.9,0,0,0-.48-.12H193.28V643.68h16.79a.84.84,0,0,0,.48-.14,1.25,1.25,0,0,0,.41-.44,2.43,2.43,0,0,0,.25-.8,9.68,9.68,0,0,0,.07-1.17,10.31,10.31,0,0,0-.07-1.19" transform="translate(-160.56 -402.63)"/><path class="cls-3" d="M274.09,542.48c-.61-.73-1.22-1.42-1.8-2.13a25.27,25.27,0,0,1-3.84-6.3,17.83,17.83,0,0,1-1.29-5.28A25.46,25.46,0,0,1,268.92,517a25.85,25.85,0,0,1,4-6.56,65.46,65.46,0,0,1,5.41-5.76,45.51,45.51,0,0,1,4.64-4c3-2.26,6-4.52,9.09-6.71,3.54-2.55,7.12-5,10.68-7.53.29-.21.59-.4.88-.58a1.26,1.26,0,0,0-1.44-1.15c-.43.06-.86.18-1.3.22s-.69,0-.8-.61c0-.2,0-.41-.07-.62-.1-.55-.36-.68-.82-.36-.78.54-1.5,1.14-2.28,1.68a24.72,24.72,0,0,1-2.52,1.64,4.9,4.9,0,0,1-4.7-.06,1.66,1.66,0,0,1-1-1.48c0-.39,0-.79,0-1.19s-.09-1-.69-1.24c-.85.56-1.69,1.15-2.56,1.69a9.15,9.15,0,0,1-1.39.72,3,3,0,0,1-3.88-1.07,4,4,0,0,1-.78-2.95c.05-.49.14-1,.24-1.48a2.61,2.61,0,0,1,1-1.59c.44-.32.9-.62,1.33-.95a2.62,2.62,0,0,0,1-1.2l-1.07-.36c-1.85-.55-3.7-1.07-5.53-1.66a20.11,20.11,0,0,1-2.55-1.05c-1.7-.8-3.38-1.66-5.07-2.48a7.52,7.52,0,0,0-3.27-.81,8.49,8.49,0,0,0-2.15.36.73.73,0,0,1-.83-.17,30.34,30.34,0,0,1-2.45-3,6.28,6.28,0,0,1,1.73,0c1.44,0,2.89.13,4.33.09a12.16,12.16,0,0,0,4.92-1.09,7.62,7.62,0,0,1,1.46-.37,64.6,64.6,0,0,0,7.79-2.58,55.76,55.76,0,0,1,6.75-2.16,21.68,21.68,0,0,1,6.66-.56,2.61,2.61,0,0,1,1.05.35,11.16,11.16,0,0,1,2.95,2.7,32,32,0,0,1,3.83,5.42c.47.87.9,1.76,1.41,2.59a7.87,7.87,0,0,0,2.77,2.7,5.84,5.84,0,0,0,5.42.27A12.7,12.7,0,0,0,316,470.5a15,15,0,0,0,2.3-3.8,6,6,0,0,0,.31-3.39,13.51,13.51,0,0,0-2.38-5.48,28.54,28.54,0,0,0-3.47-4.13c-1.6-1.59-3.24-3.15-4.89-4.7-1-.93-2-1.8-3.07-2.68a3.2,3.2,0,0,0-1.67-.81c-.83-.1-1.18.06-1.43.83a5.58,5.58,0,0,0,1,5.38,9,9,0,0,0,3,2.37,22.33,22.33,0,0,0,5.44,1.88c.37.08.74.15,1.1.24A1.4,1.4,0,0,1,313.3,458a1.18,1.18,0,0,1-1.06-.18c-1.16-.89-3.78-.45-4.89.85a3.32,3.32,0,0,0-.82,1.45,2.9,2.9,0,0,0,1.93,3.14,11.41,11.41,0,0,0,1.17.19,1.94,1.94,0,0,0,1.26-.29c.36-.22.72-.44,1.09-.62s.73-.17,1.17.37c-.41.36-.84.73-1.24,1.1-.23.21-.45.44-.66.67a2.48,2.48,0,0,0,.73,3.73,1.44,1.44,0,0,0,1.5,0c.42-.23.81-.52,1.21-.78s.78-.49,1.18-.71a3.45,3.45,0,0,1,.57-.18l.07.11c-.16.18-.3.39-.47.56a7.13,7.13,0,0,1-4.38,2.24c-.58.06-1.15.2-1.73.25-1.47.12-1.87-.79-2-1.83a8.72,8.72,0,0,1,.06-1.25,1.92,1.92,0,0,0-.42-1.64.72.72,0,0,0-.9-.17,4.09,4.09,0,0,1-.83.29,2.1,2.1,0,0,1-2.71-1.87,3.89,3.89,0,0,1,1-3.14c.79-.86,1.6-1.71,2.42-2.55a1,1,0,0,0-.24-1.63,4,4,0,0,0-1-.28,8.68,8.68,0,0,0-1.25-.13,4.13,4.13,0,0,1-2.83-1.31,6.19,6.19,0,0,1-1.65-2.55,13.92,13.92,0,0,1-.6-5.44,12.69,12.69,0,0,0-.3-4.55,13.91,13.91,0,0,0-.56-1.39c-.17-.39-.38-.75-.52-1.14s0-.71.43-.81a3.18,3.18,0,0,1,1.11,0,10.37,10.37,0,0,1,1.21.34,2.16,2.16,0,0,0,1.42.12c.26.41.5.8.76,1.18a27.13,27.13,0,0,0,4.41,5l6.44,5.88c1.06,1,2.08,2,3.18,2.93,1.36,1.14,2.81,2.18,4.2,3.3a15.31,15.31,0,0,1,3.2,3.42,1,1,0,0,1,.12,1.06,24.68,24.68,0,0,1-1.27,2.58,85.8,85.8,0,0,1-6.4,9,39.43,39.43,0,0,1-4.79,5,4.85,4.85,0,0,0-.92,1.1.84.84,0,0,0,.23,1.17l1.3-.8c2.93-1.87,5.83-3.79,8.91-5.4,2.25-1.17,4.54-2.25,6.85-3.28,2.62-1.16,5.29-2.21,7.94-3.29a2,2,0,0,0,.85-.61c2.34-2.81,4.66-5.64,7.05-8.42a70.71,70.71,0,0,1,12.48-11.59A33.65,33.65,0,0,1,367.41,442a8.56,8.56,0,0,1,3.6-.22,4.87,4.87,0,0,1,3.94,3.2c.3.76.49,1.56.78,2.32a9.33,9.33,0,0,0,.82,1.68,2.57,2.57,0,0,0,2.15,1.11c.52,0,1,.12,1.55.11a14,14,0,0,0,1.94-.13c1.28-.19,2.55-.44,3.83-.65a10.94,10.94,0,0,1,3.87-.07,1.61,1.61,0,0,1,.36.1c.05,0,.09.06.2.14l-2.57.51c-2.87.59-5.7,1.34-8.5,2.2-5.46,1.69-10.75,3.85-16,6-4,1.66-8.1,3.3-12.14,5L339.86,468a2.14,2.14,0,0,0-.88.67l-12.15,15.12-9.5,11.77c-.08.11-.15.23-.25.4l3.39.54a33.74,33.74,0,0,1,9.65,3.06,22.76,22.76,0,0,1,6.85,4.81,16.16,16.16,0,0,1,4.46,9.29,13.19,13.19,0,0,1-.34,4.47,25.08,25.08,0,0,1-5.2,10.41c-1.44,1.77-3,3.46-4.5,5.15a36.73,36.73,0,0,1-15.21,10,76,76,0,0,1-9.15,2.65,48.72,48.72,0,0,1-5.63.85,56.91,56.91,0,0,1-8.66.19,54.52,54.52,0,0,1-12.29-1.91l-2.47-.69-1.68,2.07c-4.68,5.74-9.34,11.49-14.05,17.21-1.77,2.14-3.66,4.19-5.5,6.27a3.71,3.71,0,0,1-.89.79,2.42,2.42,0,0,1-1.06.28,11.68,11.68,0,0,1-8.3-2.95,14.14,14.14,0,0,1-3.07-4,29.3,29.3,0,0,1-3-8.76,19.71,19.71,0,0,1,.47-9.25,11.8,11.8,0,0,1,2.42-4.57,6.67,6.67,0,0,1,3.78-2.2,5.56,5.56,0,0,1,2.59.3,6,6,0,0,1,3.08,2.06,14.14,14.14,0,0,1,2.82,6.17,26.81,26.81,0,0,1,.53,5.29c0,.65,0,1.3-.05,1.94a1.47,1.47,0,0,1-.26.74c-.43.6-.9,1.16-1.36,1.73q-.48.57-1,1.14a4.2,4.2,0,0,1-6.39-.62,7.54,7.54,0,0,1-1.1-2.84,7.43,7.43,0,0,1,.1-4,5.07,5.07,0,0,1,4.55-3.38,17.69,17.69,0,0,1,2.6.37,7.5,7.5,0,0,1,.75.19,1.42,1.42,0,0,0,.09-1.1,4.91,4.91,0,0,0-1.15-2.27,1.48,1.48,0,0,0-.63-.38,6.7,6.7,0,0,0-3.88-.41,5.89,5.89,0,0,0-3.9,3,10.83,10.83,0,0,0-1.33,4,13.38,13.38,0,0,0-.12,3.63,33.27,33.27,0,0,0,2.63,9.84,8.72,8.72,0,0,0,1.72,2.6,3.73,3.73,0,0,0,3,1.07,1.84,1.84,0,0,0,1-.44c1-.89,2-1.81,3-2.76.79-.78,1.54-1.59,2.28-2.43,2-2.32,4.1-4.63,6.09-7,3.76-4.47,7.46-9,11.18-13.47A1.35,1.35,0,0,0,274.09,542.48Zm6.8-1a10.46,10.46,0,0,0,2.63.93,42.83,42.83,0,0,0,8.52.86c.65,0,1.3,0,1.94-.08l3-.12a55.18,55.18,0,0,0,6.29-.66,34.34,34.34,0,0,0,5.32-1.17,49,49,0,0,0,10.6-4.84,37.42,37.42,0,0,0,8.06-6.56,28.6,28.6,0,0,0,5-7.47,26.61,26.61,0,0,0,2.59-11.16,8.43,8.43,0,0,0-.86-3.69,12.39,12.39,0,0,0-4.72-5.09,23.53,23.53,0,0,0-6.46-2.87,22.8,22.8,0,0,0-7.1-1.06,1.06,1.06,0,0,0-.92.4c-1.46,1.86-2.94,3.71-4.42,5.55L294,524.94l-12.17,15.25C281.54,540.6,281.23,541,280.89,541.45Zm30.17-43.06a14.79,14.79,0,0,0-1.65,0c-2,.26-3.94.48-5.89.85a50.22,50.22,0,0,0-13.63,4.57,32.52,32.52,0,0,0-10.22,7.89,31.41,31.41,0,0,0-5.26,8.29,20.75,20.75,0,0,0-1.71,10.46,16.46,16.46,0,0,0,3.49,8.41,5.48,5.48,0,0,0,.75.67C288.31,525.82,299.65,512.17,311.06,498.39Zm-17.78-21.52c-.27.48-.51.94-.79,1.37a12,12,0,0,1-.75,1,4.11,4.11,0,0,0-.86,2.06,2.28,2.28,0,0,0,.75,2.27,3.2,3.2,0,0,0,2.67.62,5.75,5.75,0,0,0,3.82-3.11,1.82,1.82,0,0,0-1.41-2.73c-.45-.07-.91-.06-1.37-.1s-.61-.28-.39-.72a.51.51,0,0,1,.54-.32c.9.06,1.8.07,2.69.18a5.48,5.48,0,0,0,3.58-.57s.08,0,.12,0c.43.57.47.86.05,1.39a1.61,1.61,0,0,0-.24,1.81c.07.15.13.31.2.46a3.33,3.33,0,0,0,5.2,1.31,20.1,20.1,0,0,0,2.28-2.24c.46-.47.34-.74,0-1.14a1.66,1.66,0,0,0-.67-.42,14.67,14.67,0,0,1-2.91-1.46,26,26,0,0,1-5.63-5.15c-1.16-1.36-2.26-2.75-3.4-4.11a10.07,10.07,0,0,0-7.52-3.61,18.3,18.3,0,0,0-4.55.44,71.14,71.14,0,0,0-9.68,3.07,3.51,3.51,0,0,0-1,.63,1.07,1.07,0,0,0-.36,1.14,2.25,2.25,0,0,0,.79,1.31,15,15,0,0,0,9,3.29,19,19,0,0,0,4.25-.32.93.93,0,0,0,.86-.78c.07-.32.09-.65.13-1a1.27,1.27,0,0,1,.8-1.16,2.61,2.61,0,0,1,.78,2.07,5.52,5.52,0,0,0,1.12,3.2c.09.13.16.26.24.39-1.14,0-2.22.06-3.29.12a10.64,10.64,0,0,0-3.61.76,4.9,4.9,0,0,0-2.3,1.76,1.81,1.81,0,0,0-.39,1.36,3,3,0,0,0,1.17,1.87,1.06,1.06,0,0,0,.59.15,7.74,7.74,0,0,0,2.69-.51,8.85,8.85,0,0,0,4.63-4.14C291.66,476.43,292.23,476.28,293.28,476.87Zm40.24-5.52-.08-.09c-2.26.82-4.48,1.72-6.65,2.76-3,1.45-5.83,3.19-8.73,4.82s-5.79,3.27-8.58,5.11a91.33,91.33,0,0,0-12.08,9.48c-1.8,1.66-3.5,3.42-5.23,5.15-.34.34-.65.71-1,1.13l5.83-1.88a42.71,42.71,0,0,1,10.74-2.07c1.71-.1,3.42-.15,5.14-.17a1.22,1.22,0,0,0,1-.5L331.4,474C332.12,473.12,332.81,472.23,333.52,471.35Zm7.55-5.68c.21-.06.28-.07.35-.1l14.08-5.84c2.68-1.11,5.39-2.17,8-3.51a22.88,22.88,0,0,0,4.52-2.93,4.84,4.84,0,0,0,2-4.06,4.26,4.26,0,0,0-3-3.7,7.2,7.2,0,0,0-4.06.36,18.79,18.79,0,0,0-4.22,2.35,65.72,65.72,0,0,0-8.7,7.37c-1.12,1.09-2.19,2.24-3.27,3.38-1.84,1.94-3.59,4-5.25,6.07C341.35,465.22,341.25,465.39,341.07,465.67ZM248.7,553.9c.52.3.66.36,1.09.24,1-.25,1.93-.51,2.89-.8.48-.14.63-.33.56-.83a7.4,7.4,0,0,0-.37-1.38.82.82,0,0,0-.93-.59c-.31,0-.62,0-.93.08a3.66,3.66,0,0,1-1.74,0c-.26-.1-.42,0-.58.23a1.16,1.16,0,0,0,0,1.24A2,2,0,0,1,248.7,553.9Zm.24,2.11a1.76,1.76,0,0,0,1,1,3.52,3.52,0,0,0,3.68-.69,3.82,3.82,0,0,0,.81-1.23.88.88,0,0,0-.12-.75.63.63,0,0,0-.81-.07,3.48,3.48,0,0,0-.7.51,2.72,2.72,0,0,1-2.21.82,5.27,5.27,0,0,0-.56,0A1.28,1.28,0,0,0,248.94,556Z" transform="translate(-160.56 -402.63)"/><path class="cls-3" d="M362.3,454.36a2.47,2.47,0,0,1,.09-1.33c.16-.45.34-.9.49-1.35a4.18,4.18,0,0,0,.25-2,2.64,2.64,0,0,1,3.71,1.1c.2.4.14.56-.25.82l-4,2.62A3,3,0,0,1,362.3,454.36Z" transform="translate(-160.56 -402.63)"/></svg>
