<?xml version="1.0" standalone="no"?>
<!DOCTYPE svg PUBLIC "-//W3C//DTD SVG 20010904//EN"
 "http://www.w3.org/TR/2001/REC-SVG-20010904/DTD/svg10.dtd">
<svg version="1.0" xmlns="http://www.w3.org/2000/svg"
 width="900.000000pt" height="900.000000pt" viewBox="0 0 900.000000 900.000000"
 preserveAspectRatio="xMidYMid meet">
<metadata>
Created by potrace 1.13, written by Peter Selinger 2001-2015
</metadata>
<g transform="translate(0.000000,900.000000) scale(0.100000,-0.100000)"
fill="#000000" stroke="none">
<path d="M4310 8875 c-10 -12 -42 -15 -166 -15 -91 0 -155 -4 -159 -10 -3 -5
-41 -10 -84 -10 -58 0 -82 -4 -91 -15 -9 -10 -32 -15 -76 -15 -34 0 -66 -4
-69 -10 -3 -5 -29 -10 -56 -10 -29 0 -60 -7 -74 -16 -14 -9 -31 -14 -39 -11
-7 3 -26 -1 -41 -9 -15 -8 -44 -14 -65 -14 -22 0 -43 -7 -50 -15 -9 -11 -22
-14 -39 -10 -16 3 -34 0 -46 -9 -11 -9 -31 -16 -45 -16 -14 0 -34 -7 -44 -15
-11 -8 -27 -13 -37 -10 -9 3 -22 -1 -29 -10 -7 -8 -24 -15 -39 -15 -14 0 -34
-7 -44 -15 -11 -7 -25 -11 -33 -8 -8 3 -22 -1 -32 -8 -29 -24 -61 -39 -80 -39
-11 0 -40 -11 -66 -25 -26 -14 -58 -25 -71 -25 -13 0 -26 -4 -29 -9 -3 -4 -68
-39 -143 -75 -76 -37 -145 -72 -153 -77 -8 -5 -24 -13 -35 -18 -11 -5 -29 -18
-39 -30 -11 -11 -24 -21 -31 -21 -18 0 -71 -28 -85 -45 -6 -8 -33 -24 -58 -36
-26 -12 -60 -33 -75 -46 -16 -13 -34 -23 -40 -23 -7 0 -18 -9 -25 -20 -7 -11
-19 -20 -27 -20 -9 0 -35 -18 -59 -40 -24 -22 -47 -40 -53 -40 -5 0 -24 -16
-43 -35 -19 -19 -41 -35 -50 -35 -9 0 -38 -22 -65 -50 -27 -27 -54 -50 -60
-50 -11 0 -486 -480 -566 -572 -26 -29 -49 -62 -53 -74 -3 -11 -26 -39 -51
-63 -25 -24 -45 -48 -45 -55 0 -7 -11 -23 -25 -36 -14 -13 -25 -29 -25 -36 0
-7 -11 -26 -25 -42 -14 -17 -25 -34 -25 -39 0 -5 -11 -20 -25 -33 -14 -13 -25
-29 -25 -35 0 -7 -9 -23 -21 -36 -11 -13 -32 -48 -46 -76 -13 -29 -29 -53 -34
-53 -5 0 -11 -11 -15 -25 -3 -13 -12 -29 -20 -36 -8 -6 -14 -20 -14 -30 0 -11
-4 -19 -10 -19 -5 0 -10 -9 -10 -19 0 -11 -4 -22 -9 -26 -12 -7 -71 -127 -71
-143 0 -7 -4 -12 -10 -12 -5 0 -10 -9 -10 -19 0 -11 -4 -23 -10 -26 -5 -3 -17
-23 -26 -43 -8 -20 -20 -45 -26 -56 -5 -10 -12 -29 -14 -42 -2 -13 -15 -44
-29 -68 -13 -24 -22 -46 -19 -49 3 -3 -2 -21 -11 -39 -32 -59 -35 -68 -35 -85
0 -10 -7 -27 -15 -37 -8 -11 -15 -32 -15 -47 0 -15 -5 -31 -10 -34 -6 -3 -10
-16 -10 -28 0 -12 -7 -31 -15 -41 -8 -11 -15 -37 -15 -57 0 -21 -4 -41 -10
-44 -5 -3 -10 -19 -10 -34 0 -16 -7 -34 -15 -41 -10 -8 -15 -31 -15 -66 0 -29
-5 -56 -10 -59 -6 -3 -10 -23 -10 -43 0 -20 -7 -46 -15 -56 -9 -12 -15 -42
-15 -72 0 -29 -4 -54 -9 -56 -14 -5 -31 -414 -31 -744 0 -339 16 -724 30 -738
6 -6 10 -37 10 -70 1 -34 7 -72 15 -86 8 -14 14 -42 15 -62 0 -20 4 -40 10
-43 5 -3 10 -21 10 -39 0 -18 7 -41 15 -52 8 -10 15 -36 15 -56 0 -20 5 -40
10 -43 6 -3 10 -23 10 -44 0 -20 7 -46 15 -57 8 -10 15 -31 15 -46 0 -15 5
-30 10 -33 6 -3 10 -16 10 -29 0 -12 7 -31 15 -42 8 -10 15 -29 15 -41 0 -12
11 -42 25 -67 14 -25 25 -51 25 -59 0 -7 11 -37 25 -65 14 -29 25 -57 25 -63
0 -18 228 -471 249 -494 10 -11 27 -41 39 -66 11 -25 27 -51 36 -58 9 -8 16
-19 16 -25 0 -7 11 -23 25 -36 14 -13 25 -29 25 -36 0 -7 11 -26 25 -42 14
-17 25 -34 25 -39 0 -5 11 -20 25 -33 14 -13 25 -29 25 -35 0 -7 12 -25 26
-40 14 -15 36 -44 49 -64 12 -20 46 -58 74 -86 28 -27 51 -55 51 -62 0 -18
494 -513 511 -513 8 0 37 -22 64 -50 27 -27 54 -50 61 -50 6 0 26 -16 45 -35
19 -19 40 -35 47 -35 7 0 32 -18 56 -40 24 -22 47 -40 51 -40 4 0 20 -11 37
-25 16 -14 35 -25 42 -25 7 0 21 -9 32 -21 10 -11 42 -31 70 -44 29 -13 55
-29 59 -34 3 -6 30 -22 60 -36 29 -14 59 -32 65 -40 7 -9 29 -22 49 -31 20 -9
43 -20 51 -25 8 -4 31 -16 50 -25 19 -8 44 -21 55 -26 77 -42 122 -62 136 -60
9 2 22 -4 29 -13 7 -8 17 -15 23 -15 18 0 87 -33 87 -42 0 -4 13 -8 29 -8 17
0 33 -5 36 -10 3 -6 14 -10 24 -10 10 0 24 -7 31 -15 7 -8 25 -15 41 -15 15 0
31 -4 34 -10 3 -5 16 -10 29 -10 12 0 31 -7 42 -15 10 -8 31 -15 46 -15 15 0
30 -4 33 -10 3 -5 16 -10 29 -10 12 0 31 -7 42 -15 10 -8 36 -15 56 -15 20 0
40 -4 43 -10 3 -5 23 -10 44 -10 20 0 46 -7 57 -15 10 -8 36 -15 56 -15 20 0
40 -4 43 -10 3 -5 28 -10 54 -10 26 0 56 -7 67 -15 12 -9 42 -14 81 -15 34 0
65 -5 68 -10 3 -6 41 -10 84 -10 58 0 82 -4 91 -15 10 -12 42 -15 166 -15 91
0 155 -4 159 -10 8 -13 352 -13 360 0 4 6 68 10 159 10 124 0 156 3 166 15 9
11 33 15 91 15 43 0 81 5 84 10 3 6 35 10 69 10 44 0 67 5 76 15 8 10 31 15
66 15 29 0 56 5 59 10 3 5 23 10 44 10 22 0 44 6 51 15 9 10 27 15 53 13 25
-1 42 3 45 10 2 7 22 12 47 12 26 0 47 6 56 16 7 8 21 13 30 11 10 -3 26 1 36
9 10 7 30 14 44 14 15 0 32 7 40 16 7 9 21 13 35 10 13 -4 27 0 34 9 7 8 22
15 35 15 24 0 81 26 90 41 4 5 19 9 35 9 16 0 32 5 35 10 3 6 14 10 24 10 10
0 24 7 31 15 7 8 25 15 41 15 16 0 29 5 29 10 0 6 8 10 19 10 10 0 24 7 31 15
7 8 21 15 31 15 11 0 19 5 19 10 0 6 9 10 19 10 11 0 23 4 26 10 5 8 32 22 85
44 8 3 29 15 45 25 17 11 37 20 46 20 9 1 24 10 35 22 10 11 55 38 100 60 45
21 84 45 88 54 3 8 14 15 24 15 10 0 29 11 42 25 13 14 29 25 35 25 6 0 22 11
35 25 13 14 31 25 40 25 9 0 27 11 40 25 13 14 29 25 35 25 6 0 26 16 45 35
19 19 41 35 50 35 8 0 45 29 80 65 35 36 69 65 75 65 6 0 60 49 120 110 60 61
118 110 127 110 11 0 18 7 18 18 0 9 61 78 135 152 74 74 135 139 135 145 0 6
23 33 50 60 28 27 50 55 50 62 0 8 18 33 40 57 22 24 40 48 40 53 0 5 9 18 20
28 11 10 20 24 20 30 0 7 17 32 38 56 21 24 46 60 55 79 9 19 34 60 56 90 22
30 61 98 87 150 27 52 56 104 65 115 22 25 79 139 79 158 0 7 20 53 45 101 25
49 45 94 45 101 0 8 11 36 25 63 14 28 25 58 25 67 0 9 6 29 14 43 8 15 19 47
26 72 7 25 18 57 26 72 8 14 14 35 14 46 0 12 5 24 10 27 6 3 10 18 10 33 0
15 7 36 15 46 8 11 15 37 15 57 0 21 5 41 10 44 6 3 10 23 10 44 0 22 6 44 15
51 10 8 15 31 15 66 0 29 5 56 10 59 6 3 10 30 10 59 0 28 6 58 12 64 14 14
27 109 34 256 4 63 11 107 20 120 21 31 21 753 -1 782 -10 13 -14 47 -15 116
0 53 -4 100 -10 103 -5 3 -10 37 -10 74 0 49 -4 72 -15 81 -10 8 -15 31 -15
66 0 29 -4 56 -10 59 -5 3 -10 28 -10 54 0 26 -7 56 -15 67 -8 10 -15 36 -15
56 0 20 -4 40 -10 43 -5 3 -10 18 -10 33 0 15 -7 36 -15 46 -8 11 -15 34 -15
52 0 18 -4 36 -10 39 -5 3 -10 17 -10 31 0 14 -7 36 -16 49 -9 13 -13 28 -10
33 3 5 -1 18 -9 28 -8 10 -15 29 -15 42 0 12 -7 34 -16 48 -9 13 -14 27 -11
30 3 3 -6 27 -19 54 -13 26 -24 54 -24 62 0 7 -22 58 -50 112 -27 54 -50 105
-50 113 0 8 -11 34 -25 59 -14 25 -25 51 -25 58 0 7 -9 21 -20 31 -11 10 -41
61 -67 114 -26 53 -55 105 -64 116 -10 11 -29 43 -43 71 -14 28 -33 57 -41 64
-8 7 -15 18 -15 24 0 7 -11 23 -25 36 -14 13 -25 31 -25 40 0 9 -16 31 -35 50
-19 19 -35 38 -35 43 0 6 -18 29 -40 53 -22 24 -40 49 -40 55 0 19 -75 100
-360 390 -145 148 -270 269 -277 269 -7 0 -30 19 -51 42 -20 22 -50 47 -67 54
-16 7 -43 26 -59 43 -17 17 -35 31 -41 31 -6 0 -29 18 -50 40 -21 22 -46 40
-55 40 -9 0 -27 11 -40 25 -13 14 -28 25 -33 25 -5 0 -22 11 -39 25 -16 14
-35 25 -42 25 -7 0 -23 11 -36 25 -13 14 -32 25 -42 25 -10 0 -18 5 -18 10 0
6 -8 10 -19 10 -10 0 -24 7 -31 15 -7 8 -18 15 -25 15 -7 0 -18 7 -25 15 -7 8
-65 40 -129 71 -64 31 -123 60 -131 64 -58 34 -140 70 -158 70 -12 0 -22 5
-22 10 0 6 -8 10 -19 10 -10 0 -24 7 -31 15 -7 8 -23 15 -36 15 -13 0 -43 11
-68 25 -25 14 -54 25 -65 25 -11 0 -23 5 -26 10 -3 6 -18 10 -33 10 -15 0 -36
7 -46 15 -11 8 -30 15 -42 15 -13 0 -26 5 -29 10 -3 6 -17 10 -31 10 -14 0
-35 6 -47 14 -12 7 -37 14 -56 14 -18 1 -39 6 -44 11 -6 6 -27 11 -47 11 -19
0 -43 7 -53 14 -10 8 -27 12 -37 9 -11 -3 -31 2 -45 11 -14 9 -45 16 -73 16
-26 0 -53 5 -60 12 -6 6 -36 10 -69 9 -39 -1 -65 3 -78 13 -14 11 -44 15 -97
16 -42 0 -80 5 -83 10 -4 6 -66 10 -154 10 -120 0 -151 3 -161 15 -10 12 -44
15 -185 15 -141 0 -175 -3 -185 -15z m567 -295 c78 -1 113 -5 127 -15 13 -10
38 -13 87 -10 50 3 71 0 79 -11 8 -9 31 -14 64 -14 29 0 56 -4 62 -10 5 -5 30
-11 54 -11 25 -1 55 -8 67 -15 12 -8 40 -14 62 -14 22 0 43 -4 46 -10 3 -5 21
-10 39 -10 18 0 41 -7 52 -15 10 -8 31 -15 46 -15 15 0 30 -4 33 -10 3 -5 16
-10 29 -10 12 0 31 -7 42 -15 10 -8 31 -15 46 -15 15 0 30 -4 33 -10 3 -5 15
-10 26 -10 11 0 40 -11 65 -25 25 -14 53 -25 63 -25 10 0 39 -11 65 -25 26
-14 52 -25 59 -25 11 0 92 -36 142 -63 11 -6 72 -37 137 -69 64 -32 122 -65
128 -73 7 -8 18 -15 25 -15 7 0 18 -7 25 -15 7 -8 20 -15 29 -15 10 0 28 -11
41 -25 13 -14 29 -25 35 -25 6 0 22 -11 35 -25 13 -14 31 -25 40 -25 9 0 27
-11 40 -25 13 -14 28 -25 33 -25 5 0 22 -11 39 -25 16 -14 35 -25 42 -25 7 0
27 -16 46 -35 19 -19 39 -35 45 -35 6 0 33 -22 60 -50 27 -27 56 -50 65 -50
20 0 500 -481 500 -501 0 -8 27 -41 60 -74 33 -33 60 -64 60 -70 0 -6 16 -26
35 -45 19 -19 35 -39 35 -46 0 -7 11 -26 25 -42 14 -17 25 -34 25 -39 0 -5 11
-20 25 -33 14 -13 25 -29 25 -36 0 -7 11 -26 25 -42 14 -17 25 -34 25 -39 0
-6 9 -18 20 -28 11 -10 38 -55 60 -101 22 -45 44 -85 49 -89 13 -7 121 -222
121 -239 0 -8 16 -45 35 -82 19 -37 35 -75 35 -84 0 -9 11 -38 25 -64 14 -26
25 -55 25 -65 0 -9 7 -26 15 -37 8 -10 15 -31 15 -46 0 -15 5 -30 10 -33 6 -3
10 -16 10 -29 0 -12 7 -31 15 -42 8 -10 15 -31 15 -46 0 -15 4 -29 9 -32 5 -3
11 -23 14 -43 4 -37 21 -90 38 -125 5 -10 9 -40 9 -67 0 -31 5 -53 15 -61 10
-8 15 -31 15 -66 0 -29 5 -56 10 -59 6 -3 10 -27 10 -53 0 -27 7 -57 15 -70
12 -16 15 -44 14 -102 -1 -50 3 -86 10 -93 16 -16 16 -828 -1 -845 -8 -8 -11
-41 -9 -94 1 -62 -2 -88 -13 -103 -10 -12 -16 -43 -16 -80 0 -34 -6 -68 -14
-78 -8 -10 -12 -26 -9 -36 3 -10 -2 -32 -11 -49 -9 -17 -16 -51 -16 -76 0 -25
-5 -48 -10 -51 -5 -3 -10 -19 -10 -34 0 -16 -7 -34 -15 -41 -9 -8 -15 -29 -15
-56 0 -23 -5 -46 -10 -49 -5 -3 -10 -16 -10 -29 0 -12 -7 -31 -15 -42 -8 -10
-15 -31 -15 -46 0 -15 -4 -30 -10 -33 -5 -3 -10 -16 -10 -29 0 -12 -7 -31 -15
-42 -8 -10 -15 -29 -15 -42 0 -12 -11 -40 -25 -62 -14 -22 -25 -48 -25 -58 0
-10 -22 -62 -50 -116 -27 -54 -50 -104 -50 -112 0 -13 -9 -34 -32 -74 -4 -8
-12 -25 -17 -37 -6 -11 -15 -24 -20 -28 -6 -3 -29 -44 -51 -90 -23 -46 -47
-89 -55 -95 -16 -13 -45 -67 -45 -84 0 -6 -12 -22 -25 -35 -14 -13 -25 -29
-25 -35 0 -7 -11 -23 -25 -36 -14 -13 -25 -30 -25 -37 0 -8 -13 -25 -29 -39
-17 -14 -33 -35 -37 -47 -7 -22 -26 -47 -129 -164 -30 -35 -55 -68 -55 -75 0
-17 -471 -488 -488 -488 -7 0 -37 -23 -66 -50 -29 -28 -57 -50 -62 -50 -6 0
-28 -18 -49 -40 -21 -22 -46 -40 -55 -40 -9 0 -31 -16 -50 -35 -19 -19 -39
-35 -45 -35 -6 0 -22 -11 -35 -25 -13 -14 -32 -25 -42 -25 -10 0 -18 -4 -18
-9 0 -5 -12 -14 -27 -20 -16 -6 -46 -24 -68 -41 -22 -16 -47 -29 -56 -30 -8 0
-26 -11 -39 -25 -13 -14 -32 -25 -42 -25 -10 0 -18 -4 -18 -10 0 -5 -9 -10
-19 -10 -11 0 -23 -4 -26 -10 -3 -5 -23 -17 -43 -26 -20 -8 -44 -20 -52 -24
-58 -33 -178 -90 -191 -90 -9 0 -37 -11 -63 -25 -26 -14 -58 -25 -71 -25 -13
0 -26 -4 -30 -9 -8 -14 -65 -41 -87 -41 -10 0 -30 -7 -43 -16 -13 -9 -28 -13
-33 -10 -5 3 -18 -1 -28 -9 -10 -8 -30 -15 -44 -15 -14 0 -34 -7 -44 -15 -10
-8 -23 -12 -28 -9 -5 3 -20 -1 -33 -10 -13 -9 -39 -16 -57 -16 -18 0 -42 -7
-52 -15 -11 -8 -29 -12 -43 -9 -14 4 -33 0 -48 -10 -14 -9 -45 -16 -74 -16
-27 0 -53 -4 -56 -10 -3 -5 -28 -10 -54 -10 -26 0 -56 -7 -67 -15 -12 -9 -44
-14 -91 -15 -39 0 -75 -4 -78 -10 -4 -6 -54 -10 -119 -10 -83 0 -117 -4 -132
-15 -29 -22 -506 -22 -524 0 -10 12 -37 15 -126 15 -64 0 -115 4 -119 10 -3 6
-41 10 -84 10 -58 0 -82 4 -91 15 -8 10 -31 15 -66 15 -29 0 -56 5 -59 10 -3
6 -30 10 -59 10 -34 0 -58 5 -65 14 -7 8 -28 14 -47 14 -20 0 -41 5 -47 11 -6
6 -28 11 -50 11 -21 0 -45 7 -53 15 -9 8 -26 15 -39 15 -13 0 -27 5 -30 10 -3
6 -17 10 -31 10 -14 0 -36 7 -49 16 -13 9 -28 13 -33 10 -5 -3 -18 1 -28 9
-10 8 -28 15 -40 15 -12 0 -42 11 -68 25 -26 14 -58 25 -71 25 -13 0 -26 4
-30 9 -8 13 -65 41 -84 41 -13 0 -235 104 -281 131 -8 5 -24 13 -35 18 -11 5
-29 18 -39 30 -11 11 -27 21 -38 21 -10 0 -18 5 -18 10 0 6 -8 10 -19 10 -10
0 -24 7 -31 15 -7 8 -17 15 -22 15 -6 0 -23 11 -40 25 -16 14 -35 25 -42 25
-7 0 -23 11 -36 25 -13 14 -28 25 -33 25 -5 0 -22 11 -39 25 -16 14 -35 25
-42 25 -7 0 -23 11 -36 25 -13 14 -29 25 -35 25 -6 0 -26 16 -45 35 -19 19
-41 35 -50 35 -8 0 -42 27 -75 60 -33 33 -64 60 -70 60 -12 0 -475 461 -475
474 0 5 -22 33 -50 62 -27 29 -50 59 -50 66 0 8 -16 29 -35 48 -19 19 -35 39
-35 45 0 6 -14 24 -31 41 -17 16 -38 43 -45 59 -8 17 -30 50 -49 75 -19 25
-45 68 -59 96 -14 28 -31 56 -39 63 -8 6 -29 42 -46 79 -18 37 -41 83 -51 102
-32 63 -98 195 -104 210 -3 8 -15 29 -25 45 -11 17 -20 37 -20 46 -1 9 -8 22
-16 29 -8 7 -15 23 -15 36 0 13 -11 43 -25 68 -14 25 -25 54 -25 65 0 11 -5
23 -10 26 -6 3 -10 19 -10 34 0 15 -6 33 -12 39 -7 7 -16 48 -20 90 -6 69 -10
96 -34 197 -4 17 -13 39 -20 50 -8 11 -14 41 -14 67 0 26 -4 50 -10 53 -5 3
-10 30 -10 59 0 28 -5 57 -11 63 -6 6 -13 35 -15 64 -2 29 -8 57 -14 63 -5 5
-10 49 -10 96 0 60 -4 92 -15 106 -22 29 -22 811 0 840 10 13 14 45 15 106 0
48 4 90 10 93 5 3 10 34 10 69 0 39 5 69 15 82 8 10 15 36 15 56 0 20 4 40 10
43 5 3 10 30 10 59 0 35 5 58 15 66 8 7 15 24 15 39 0 15 4 31 8 37 5 5 15 54
21 109 7 55 19 108 27 119 8 11 14 28 14 38 0 9 11 38 25 64 14 26 25 57 25
70 0 13 4 26 10 29 5 3 10 14 10 25 0 15 70 167 112 245 6 11 45 86 85 168 41
81 78 147 83 147 5 0 12 11 16 24 3 14 15 33 26 42 11 10 30 41 43 69 12 28
30 57 39 64 9 7 16 19 16 25 0 6 18 31 40 54 22 24 40 49 40 56 0 7 16 27 35
46 19 19 35 39 35 44 0 6 23 35 50 64 28 29 50 58 50 65 0 17 451 464 476 471
11 4 47 33 78 66 32 33 63 60 70 60 7 0 25 14 42 31 16 17 44 37 62 44 18 8
35 21 38 30 3 8 14 15 23 15 10 0 28 11 41 25 13 14 29 25 36 25 6 0 22 11 35
25 13 13 31 25 40 25 9 0 24 9 35 21 10 11 42 31 70 44 29 13 55 29 59 35 4 6
17 15 28 21 12 5 29 13 37 18 8 5 31 17 50 25 19 9 42 21 50 25 8 5 32 17 52
25 20 9 40 21 43 26 3 6 15 10 26 10 10 0 19 5 19 10 0 6 8 10 19 10 10 0 24
7 31 15 7 8 23 15 36 15 13 0 43 11 68 25 25 14 54 25 65 25 11 0 23 5 26 10
3 6 14 10 24 10 10 0 24 7 31 15 7 8 25 15 41 15 15 0 31 5 34 10 3 6 19 10
34 10 16 0 34 7 42 16 7 8 21 13 30 11 10 -3 26 1 36 9 10 7 34 14 53 14 19 0
44 7 54 15 11 8 27 13 37 10 9 -3 22 1 29 10 8 9 29 15 55 15 25 0 45 5 47 12
3 8 27 13 63 14 34 1 61 6 63 13 2 6 26 11 55 11 29 0 59 6 69 13 10 8 44 12
87 12 49 -1 75 2 82 12 8 9 42 13 123 13 62 0 116 4 122 10 15 15 494 18 521
3 14 -8 63 -13 130 -13z"/>
<path d="M4365 8236 c-16 -12 -52 -15 -172 -16 -90 0 -154 -4 -158 -10 -3 -5
-39 -10 -79 -10 -48 0 -79 -5 -92 -15 -10 -8 -40 -15 -66 -15 -26 0 -50 -4
-53 -10 -3 -5 -30 -10 -59 -10 -35 0 -58 -5 -66 -15 -8 -9 -29 -15 -56 -15
-23 0 -46 -4 -49 -10 -3 -5 -16 -10 -29 -10 -12 0 -31 -7 -42 -15 -10 -8 -36
-15 -56 -15 -20 0 -40 -4 -43 -10 -3 -5 -19 -10 -34 -10 -16 0 -34 -7 -41 -15
-7 -8 -23 -15 -36 -15 -13 0 -43 -11 -68 -25 -25 -14 -52 -25 -61 -25 -8 0
-23 -4 -33 -9 -9 -5 -24 -12 -32 -15 -8 -4 -28 -15 -45 -25 -16 -11 -39 -20
-49 -20 -28 -1 -240 -108 -262 -132 -9 -10 -23 -19 -31 -19 -7 0 -31 -11 -53
-25 -22 -14 -46 -25 -53 -25 -7 0 -24 -11 -37 -25 -13 -14 -29 -25 -35 -25 -6
0 -22 -11 -35 -25 -13 -14 -29 -25 -36 -25 -7 0 -25 -11 -40 -25 -15 -14 -32
-25 -38 -25 -7 0 -27 -16 -46 -35 -19 -19 -39 -35 -44 -35 -6 0 -35 -23 -64
-50 -29 -28 -58 -50 -65 -50 -7 0 -57 -45 -112 -100 -55 -55 -105 -100 -112
-100 -15 0 -72 -60 -73 -75 0 -6 -50 -60 -110 -120 -61 -60 -110 -116 -110
-125 0 -8 -16 -31 -35 -50 -19 -19 -35 -39 -35 -45 0 -6 -18 -29 -40 -50 -22
-21 -40 -45 -40 -52 0 -6 -11 -24 -25 -39 -14 -15 -25 -31 -25 -37 0 -5 -11
-22 -25 -39 -14 -16 -25 -35 -25 -43 0 -7 -7 -15 -15 -19 -8 -3 -26 -30 -40
-60 -14 -30 -29 -57 -35 -61 -5 -3 -31 -49 -58 -103 -26 -53 -53 -106 -59
-117 -6 -11 -19 -36 -27 -55 -9 -19 -20 -42 -25 -50 -24 -45 -31 -61 -31 -75
0 -9 -11 -36 -25 -61 -14 -25 -25 -53 -25 -63 0 -10 -11 -39 -25 -65 -14 -26
-25 -55 -25 -64 0 -10 -7 -28 -16 -40 -8 -12 -13 -30 -10 -40 3 -9 -1 -30 -9
-46 -8 -15 -15 -37 -15 -47 0 -11 -7 -31 -16 -44 -9 -13 -13 -29 -9 -35 3 -5
-1 -24 -9 -42 -9 -17 -16 -48 -16 -69 0 -21 -4 -41 -10 -44 -5 -3 -10 -25 -10
-48 0 -23 -7 -55 -15 -71 -8 -15 -15 -54 -15 -87 0 -32 -4 -61 -10 -64 -6 -3
-10 -49 -10 -104 0 -70 -4 -103 -15 -117 -20 -26 -22 -613 -2 -632 7 -8 15
-57 19 -120 11 -168 22 -250 36 -264 6 -6 12 -36 12 -64 0 -29 5 -56 10 -59 6
-3 10 -23 10 -43 0 -20 7 -46 15 -56 8 -11 15 -31 15 -45 0 -29 17 -85 37
-124 8 -15 12 -35 9 -45 -3 -9 1 -30 9 -46 8 -15 15 -37 15 -47 0 -11 11 -37
25 -59 14 -22 25 -48 25 -59 0 -11 11 -41 25 -67 14 -26 25 -53 25 -60 0 -17
188 -391 200 -399 5 -3 21 -30 35 -58 15 -29 42 -72 61 -97 19 -25 40 -56 47
-70 15 -32 42 -69 90 -126 20 -25 37 -51 37 -58 0 -6 16 -27 35 -46 19 -19 35
-38 35 -44 0 -5 52 -62 115 -126 63 -64 115 -123 115 -131 0 -17 56 -69 74
-69 6 0 54 -43 106 -95 52 -52 99 -95 105 -95 6 0 33 -22 60 -50 27 -27 56
-50 65 -50 9 0 34 -18 55 -40 21 -22 44 -40 51 -40 6 0 18 -7 25 -17 8 -9 28
-22 44 -30 17 -7 50 -29 75 -48 25 -18 82 -52 127 -74 45 -23 85 -46 88 -52 4
-5 17 -14 28 -20 12 -5 29 -13 37 -18 8 -5 32 -17 52 -25 20 -9 40 -21 43 -26
3 -6 15 -10 26 -10 10 0 19 -4 19 -10 0 -5 10 -10 23 -10 13 0 58 -18 101 -40
42 -22 86 -40 96 -40 10 0 22 -4 25 -10 3 -5 14 -10 24 -10 10 0 24 -7 32 -16
7 -8 21 -13 30 -11 10 3 26 -1 36 -9 10 -7 30 -14 44 -14 15 0 32 -7 39 -15 8
-9 26 -15 46 -13 19 1 39 -3 46 -10 7 -7 22 -12 34 -12 12 0 34 -7 50 -15 16
-8 38 -12 49 -9 13 3 27 -1 34 -10 9 -11 31 -16 67 -16 29 0 56 -5 59 -10 3
-6 28 -10 54 -10 26 0 56 -7 67 -15 13 -10 44 -14 96 -15 42 0 80 -4 83 -10 4
-6 66 -10 154 -10 114 0 152 -3 167 -15 28 -21 256 -21 274 0 10 12 41 14 162
14 98 -1 154 3 161 10 6 6 43 11 82 11 40 0 76 5 82 11 7 7 34 12 62 13 28 1
56 7 63 14 7 7 34 12 60 12 27 0 59 6 71 14 12 7 33 12 47 11 14 -2 35 3 47
11 12 8 33 14 46 14 12 0 28 5 34 11 6 6 27 11 47 11 19 0 40 6 47 14 6 8 23
14 38 14 14 0 34 7 44 15 11 7 25 11 33 8 8 -3 22 1 32 8 29 24 61 39 80 39
11 0 40 11 66 25 26 14 58 25 71 25 13 0 26 4 30 9 7 12 64 41 81 41 7 0 14 3
16 8 4 10 67 42 84 42 8 0 14 5 14 10 0 6 8 10 18 10 11 0 27 10 38 21 10 12
28 25 39 30 11 5 27 13 35 18 8 5 37 19 64 32 26 13 51 29 53 36 3 7 13 13 22
13 10 0 28 11 41 25 13 14 29 25 35 25 6 0 22 11 35 25 13 14 31 25 40 25 9 0
34 18 55 40 21 22 45 40 52 40 7 0 27 16 44 35 18 19 39 35 48 35 9 0 54 38
101 85 47 47 89 85 95 85 15 0 175 160 175 174 0 6 38 49 85 96 47 47 85 90
85 97 0 7 24 40 53 73 87 100 114 134 131 168 9 17 21 32 26 32 6 0 10 6 10
14 0 7 13 29 29 49 15 20 34 51 41 69 7 18 22 42 32 54 24 27 248 474 248 495
0 9 11 37 25 63 14 26 25 54 25 62 0 9 6 28 14 42 8 15 19 47 26 72 7 25 19
59 26 77 8 17 14 45 14 61 0 17 5 34 10 37 6 3 10 17 10 31 0 14 7 35 15 48 8
12 14 41 13 65 -1 23 4 47 10 53 7 7 12 29 12 49 0 21 5 41 10 44 6 3 10 32
10 63 1 31 7 68 15 82 10 17 14 57 15 121 0 52 5 100 10 105 7 7 9 125 6 350
-6 418 -12 529 -33 573 -10 22 -14 49 -10 77 3 28 0 50 -9 61 -7 10 -14 35
-14 55 0 20 -4 40 -10 43 -5 3 -10 28 -10 54 0 26 -7 56 -15 67 -8 10 -15 31
-15 46 0 15 -4 30 -10 33 -5 3 -10 23 -10 44 0 22 -6 44 -15 51 -8 7 -15 25
-15 41 0 15 -4 31 -10 34 -5 3 -10 18 -10 33 0 15 -7 36 -15 46 -8 11 -15 28
-15 37 0 10 -11 39 -25 65 -14 26 -25 53 -25 61 0 17 -52 127 -62 131 -5 2 -8
9 -8 15 0 14 -77 167 -91 181 -5 6 -9 16 -9 23 0 7 -11 31 -25 53 -14 22 -25
46 -25 53 0 8 -9 22 -21 33 -11 10 -31 41 -44 69 -12 28 -30 57 -39 64 -9 7
-16 19 -16 25 0 7 -11 23 -25 36 -14 13 -25 30 -25 37 0 7 -18 33 -40 57 -22
24 -40 47 -40 51 0 5 -22 32 -50 61 -27 29 -50 59 -50 66 0 7 -38 51 -85 98
-47 47 -85 89 -85 95 0 13 -152 165 -165 165 -5 0 -50 41 -101 90 -50 50 -98
90 -106 90 -8 0 -29 16 -48 35 -19 19 -38 35 -43 35 -6 0 -29 18 -53 40 -24
22 -50 40 -57 40 -8 0 -22 9 -32 20 -10 11 -23 20 -30 20 -6 0 -22 11 -35 25
-13 14 -29 25 -36 25 -7 0 -25 10 -41 23 -34 26 -62 45 -83 53 -54 22 -78 36
-95 54 -10 11 -26 20 -36 20 -10 0 -21 4 -24 10 -5 8 -32 22 -85 44 -8 3 -28
15 -45 25 -16 11 -37 20 -46 20 -9 1 -22 8 -29 16 -7 9 -20 13 -27 11 -8 -3
-38 7 -66 23 -29 15 -58 26 -65 24 -7 -3 -21 1 -30 9 -28 23 -74 43 -92 40 -9
-1 -23 4 -30 13 -7 8 -25 15 -41 15 -15 0 -31 5 -34 10 -3 6 -23 10 -44 10
-20 0 -46 7 -57 15 -10 8 -31 15 -46 15 -15 0 -30 5 -33 10 -3 6 -23 10 -44
10 -22 0 -44 6 -51 15 -8 10 -31 15 -66 15 -29 0 -56 5 -59 10 -3 6 -30 10
-59 10 -35 0 -58 5 -66 15 -9 11 -33 15 -91 15 -43 0 -81 5 -84 10 -4 6 -66
10 -153 10 -105 1 -152 4 -164 14 -27 20 -237 22 -263 2z m-158 -210 c4 -4 2
-16 -5 -26 -8 -14 -12 -75 -12 -197 0 -150 2 -179 17 -195 35 -39 53 -26 279
201 l219 220 77 5 c56 3 81 1 95 -9 12 -10 46 -14 99 -15 53 0 92 -5 112 -16
32 -15 41 -37 22 -49 -5 -3 -10 -15 -10 -26 0 -10 -4 -19 -10 -19 -5 0 -10
-20 -10 -44 0 -26 -6 -48 -15 -56 -9 -7 -15 -29 -15 -51 0 -21 -4 -41 -10 -44
-5 -3 -10 -34 -10 -69 0 -50 4 -67 20 -81 20 -18 30 -16 100 24 8 5 36 19 62
31 26 12 49 29 52 36 3 8 14 14 24 14 11 0 25 7 32 15 7 8 18 15 24 15 7 0 23
11 36 25 13 14 29 25 35 25 16 0 73 29 80 41 4 5 14 9 24 9 9 0 32 16 51 35
34 35 63 44 75 25 3 -5 19 -10 34 -10 16 0 34 -7 41 -15 7 -8 23 -15 36 -15
13 0 43 -11 68 -25 25 -14 52 -25 61 -25 8 0 23 -4 33 -9 9 -5 34 -17 55 -27
20 -10 37 -23 37 -29 0 -6 -16 -26 -35 -45 -19 -19 -35 -42 -35 -52 0 -10 -6
-21 -14 -24 -8 -3 -27 -31 -42 -61 -15 -31 -35 -64 -45 -74 -11 -11 -19 -30
-19 -43 0 -14 -4 -28 -10 -31 -15 -9 -12 -36 7 -57 21 -23 105 -25 123 -3 7 8
25 15 41 15 15 0 31 5 34 10 3 6 23 10 44 10 22 0 44 6 51 15 7 9 29 15 51 15
21 0 41 5 44 10 3 6 17 10 31 10 14 0 36 7 49 16 16 11 36 14 55 11 16 -4 32
-2 35 3 3 5 22 17 41 26 l35 17 38 -37 c20 -20 44 -36 53 -36 9 0 18 -7 22
-15 3 -8 18 -21 33 -27 15 -7 51 -33 80 -58 28 -25 64 -55 80 -66 28 -22 28
-22 9 -43 -11 -12 -24 -21 -30 -21 -16 0 -219 -209 -236 -242 -12 -25 -11 -30
5 -48 17 -19 30 -20 325 -20 l307 0 57 -57 c31 -31 56 -60 56 -64 0 -4 18 -29
40 -54 22 -25 40 -49 40 -53 0 -4 16 -24 36 -45 44 -46 44 -80 0 -85 -16 -2
-46 -15 -67 -28 -21 -13 -45 -24 -52 -24 -8 0 -22 -9 -33 -21 -10 -11 -39 -30
-64 -41 -70 -32 -90 -54 -90 -105 0 -41 1 -43 29 -43 17 0 33 -4 36 -10 3 -5
22 -10 42 -10 19 0 47 -6 61 -14 41 -21 95 -36 129 -36 17 0 36 -7 43 -15 7
-9 29 -15 51 -15 21 0 41 -4 44 -10 3 -5 19 -10 34 -10 16 0 34 -7 41 -15 7
-9 29 -15 53 -15 45 0 77 -22 77 -54 0 -11 22 -65 48 -121 55 -113 72 -160 72
-197 0 -32 -15 -38 -90 -38 -32 0 -62 -4 -65 -10 -3 -5 -16 -10 -28 -10 -12 0
-31 -7 -41 -15 -11 -8 -29 -12 -42 -9 -39 10 -124 -45 -124 -81 0 -26 52 -76
105 -100 22 -10 46 -26 53 -37 7 -10 19 -18 26 -18 17 0 74 -29 81 -41 4 -5
14 -9 24 -9 10 0 26 -9 36 -20 11 -12 35 -28 54 -36 20 -9 43 -20 51 -25 22
-12 72 -36 93 -43 10 -3 17 -16 17 -33 0 -15 7 -37 15 -47 9 -12 15 -42 15
-77 0 -32 5 -61 10 -64 6 -3 10 -50 10 -105 0 -80 -3 -99 -16 -104 -9 -3 -103
-6 -210 -6 l-194 0 0 -38 c0 -36 10 -48 203 -240 112 -111 211 -202 220 -202
24 0 32 -45 13 -75 -12 -18 -16 -49 -16 -124 0 -56 -4 -103 -10 -106 -6 -3
-10 -30 -10 -60 0 -89 -12 -102 -53 -61 -16 16 -32 23 -44 20 -11 -3 -25 2
-32 10 -9 10 -30 16 -56 16 -25 0 -45 5 -47 12 -3 7 -18 11 -38 10 -18 -1 -43
4 -56 13 -47 30 -124 9 -124 -34 0 -19 83 -186 103 -210 8 -9 29 -45 46 -81
18 -36 40 -74 50 -85 10 -11 28 -41 40 -66 12 -26 30 -54 41 -64 24 -22 27
-82 5 -111 -8 -10 -15 -31 -15 -46 0 -15 -4 -30 -10 -33 -5 -3 -10 -14 -10
-24 0 -23 -86 -195 -106 -212 -13 -10 -20 -6 -45 24 -17 21 -37 37 -44 37 -7
0 -26 10 -42 23 -15 13 -35 27 -43 30 -8 4 -22 11 -30 16 -8 5 -32 17 -52 25
-20 9 -40 21 -43 26 -10 17 -82 12 -89 -6 -12 -31 -6 -130 9 -150 8 -10 15
-29 15 -41 0 -12 5 -25 10 -28 6 -3 10 -23 10 -44 0 -20 7 -46 15 -57 8 -10
15 -36 15 -56 0 -20 5 -40 10 -43 6 -3 10 -23 10 -44 0 -20 7 -46 15 -57 8
-10 15 -31 15 -46 0 -15 5 -30 10 -33 17 -10 11 -36 -15 -67 -14 -16 -25 -35
-25 -42 0 -7 -16 -27 -35 -46 -19 -19 -35 -38 -35 -43 0 -6 -18 -29 -40 -53
-22 -24 -40 -50 -40 -57 0 -19 -56 -70 -69 -63 -6 4 -11 19 -11 34 0 21 -25
53 -118 145 -114 114 -119 117 -152 111 -72 -14 -70 -7 -70 -302 0 -182 4
-276 12 -299 12 -32 11 -35 -32 -79 -25 -26 -58 -52 -75 -59 -16 -8 -50 -34
-75 -59 -24 -25 -48 -46 -53 -46 -5 0 -22 -11 -39 -25 -16 -14 -33 -25 -38
-25 -10 0 -50 67 -50 84 0 7 -9 21 -20 31 -11 10 -34 48 -51 84 -37 77 -103
151 -135 151 -23 0 -54 -46 -54 -80 0 -9 -7 -25 -15 -36 -8 -10 -15 -36 -15
-56 0 -20 -4 -40 -10 -43 -5 -3 -10 -23 -10 -44 0 -20 -7 -46 -15 -57 -8 -10
-15 -31 -15 -46 0 -15 -4 -30 -10 -33 -5 -3 -10 -21 -10 -39 0 -18 -7 -41 -15
-52 -8 -11 -15 -41 -15 -70 0 -32 -5 -56 -14 -64 -29 -23 -192 -100 -213 -100
-13 0 -23 -4 -23 -10 0 -5 -8 -10 -19 -10 -10 0 -24 -7 -32 -16 -7 -8 -21 -13
-30 -11 -10 3 -26 -1 -36 -9 -28 -21 -33 -17 -33 29 0 23 -7 51 -15 61 -8 11
-15 37 -15 57 0 21 -4 41 -10 44 -5 3 -10 23 -10 43 0 20 -7 46 -15 56 -8 11
-15 27 -15 36 0 33 -31 80 -53 80 -22 0 -87 -56 -87 -76 0 -6 -7 -17 -16 -24
-8 -8 -33 -50 -55 -94 -22 -45 -53 -99 -69 -121 -16 -22 -29 -47 -30 -56 0 -9
-7 -22 -15 -29 -8 -7 -15 -18 -15 -25 0 -6 -9 -20 -20 -30 -11 -10 -20 -29
-20 -43 0 -14 -10 -36 -22 -49 -17 -18 -32 -23 -74 -23 -29 0 -56 -4 -59 -10
-3 -5 -46 -10 -94 -10 -67 0 -92 -4 -101 -15 -8 -9 -30 -15 -57 -15 -43 0 -45
1 -37 22 4 13 10 105 11 205 4 173 3 183 -17 203 -11 11 -29 20 -41 20 -14 0
-93 -73 -243 -225 l-222 -225 -76 0 c-55 0 -79 4 -88 15 -9 11 -33 15 -91 15
-43 0 -81 5 -84 10 -3 6 -19 10 -35 10 -16 0 -31 4 -34 8 -2 4 6 29 20 56 13
26 24 63 24 81 0 19 4 37 10 40 6 3 10 19 10 34 0 16 7 34 15 41 11 9 15 32
15 81 0 56 -4 73 -20 89 -24 24 -33 25 -50 5 -7 -8 -20 -15 -29 -15 -9 -1 -34
-14 -56 -30 -22 -15 -74 -45 -115 -66 -41 -21 -79 -43 -85 -50 -5 -7 -21 -18
-35 -24 -14 -6 -38 -19 -55 -29 -16 -11 -37 -20 -45 -20 -8 -1 -33 -19 -55
-41 -28 -28 -47 -39 -58 -34 -9 3 -17 10 -17 15 0 5 -15 9 -34 9 -19 0 -36 5
-38 11 -2 6 -19 12 -38 13 -18 1 -36 8 -38 14 -2 7 -12 12 -22 12 -10 0 -21 4
-25 9 -9 16 -66 41 -91 41 -13 0 -26 5 -29 10 -3 6 -15 10 -25 10 -36 0 -32
22 13 68 25 26 60 77 77 114 18 37 40 76 49 86 48 54 64 119 35 143 -17 14
-83 14 -98 -1 -6 -6 -29 -10 -52 -10 -25 0 -47 -6 -54 -15 -7 -9 -29 -15 -51
-15 -21 0 -41 -5 -44 -10 -3 -6 -23 -10 -44 -10 -20 0 -46 -7 -57 -15 -10 -8
-31 -15 -46 -15 -15 0 -30 -4 -33 -10 -3 -5 -23 -10 -43 -10 -20 0 -45 -7 -55
-15 -26 -19 -85 -8 -115 22 -12 12 -29 23 -36 23 -7 0 -21 9 -31 20 -10 11
-26 22 -37 26 -11 3 -36 24 -56 46 -19 21 -50 45 -69 53 -18 8 -36 21 -39 30
-7 17 21 55 40 55 14 0 203 188 221 221 8 13 17 30 21 37 3 7 -2 22 -11 32
-17 19 -33 20 -329 20 l-312 0 -42 43 c-23 23 -42 48 -42 55 0 7 -22 37 -50
66 -27 29 -50 57 -50 62 0 4 -19 28 -42 51 -35 36 -41 46 -32 61 6 9 20 17 30
17 29 1 154 64 161 81 3 8 13 14 23 14 10 0 23 7 30 15 7 8 20 15 29 15 10 0
32 16 51 35 30 31 32 37 24 67 -8 27 -15 34 -39 36 -17 2 -34 8 -39 13 -6 5
-22 9 -37 9 -15 0 -32 7 -39 15 -7 9 -29 15 -51 15 -21 0 -41 5 -44 10 -3 6
-23 10 -43 10 -20 0 -46 7 -56 15 -11 8 -37 15 -57 15 -21 0 -41 5 -44 10 -3
6 -19 10 -34 10 -16 0 -34 7 -41 15 -7 8 -29 15 -50 15 l-38 0 -56 113 c-31
62 -56 121 -56 130 0 9 -12 37 -26 62 -14 25 -24 56 -22 68 3 20 10 22 67 25
36 2 74 10 87 19 13 8 30 13 38 10 8 -3 20 1 26 9 7 8 30 14 55 14 26 0 47 6
55 15 7 9 20 15 29 13 27 -4 41 12 41 46 0 38 -32 71 -101 104 -25 12 -54 31
-64 42 -10 11 -23 20 -30 20 -16 0 -73 29 -80 41 -4 5 -14 9 -25 9 -10 0 -20
6 -23 14 -6 14 -183 106 -204 106 -13 0 -25 28 -17 41 3 6 -1 21 -10 34 -11
16 -16 47 -16 93 0 37 -4 72 -9 77 -8 8 -15 103 -12 168 1 16 18 17 206 17
195 0 205 1 205 19 0 11 3 27 6 36 5 12 -49 72 -202 226 -115 115 -214 209
-221 209 -20 0 -27 28 -13 45 7 9 13 55 15 116 2 56 8 106 14 112 6 6 11 46
11 88 0 45 5 81 11 85 6 3 23 -6 38 -20 19 -18 38 -26 63 -26 20 0 40 -4 43
-10 3 -5 19 -10 34 -10 16 0 34 -7 41 -15 7 -9 29 -15 51 -15 21 0 41 -4 44
-10 9 -15 112 -13 117 3 10 27 -1 90 -19 110 -11 12 -36 57 -56 99 -21 43 -42
80 -47 83 -5 3 -26 39 -45 79 -19 40 -44 81 -55 91 -11 10 -20 24 -20 31 0 7
-11 25 -25 40 -19 20 -25 38 -25 70 0 23 5 46 10 49 5 3 10 15 10 26 0 11 11
40 25 65 14 25 25 52 25 62 0 25 63 144 83 156 13 8 24 4 54 -24 42 -39 76
-60 96 -60 8 0 22 -9 32 -20 27 -30 134 -80 172 -80 l33 0 0 79 c0 44 -5 83
-10 86 -5 3 -10 23 -10 43 0 20 -7 46 -15 56 -8 11 -15 30 -15 42 0 13 -5 26
-10 29 -5 3 -10 25 -10 48 0 23 -7 51 -15 61 -8 11 -15 34 -15 52 0 18 -5 36
-10 39 -5 3 -10 17 -10 31 0 14 -7 36 -16 50 -16 24 -16 26 10 52 14 16 26 34
26 40 0 7 18 32 40 56 22 24 40 47 40 53 0 5 18 27 41 48 22 22 48 56 57 75
23 48 50 52 59 9 5 -25 36 -63 119 -146 97 -97 118 -113 145 -113 18 0 41 7
51 17 17 15 18 38 18 325 l0 308 41 45 c23 25 49 45 58 45 9 0 39 23 66 50 27
28 54 50 59 50 5 0 22 12 37 26 48 46 70 30 129 -90 28 -57 58 -110 66 -117 8
-7 21 -26 28 -43 15 -35 41 -61 72 -70 17 -5 26 0 43 29 11 20 21 44 21 54 0
10 6 31 14 46 8 15 12 34 9 41 -3 8 2 25 11 39 9 13 16 35 16 48 0 12 5 28 12
35 6 6 11 26 10 44 0 18 6 43 14 55 7 12 14 38 14 57 0 19 5 38 10 41 6 3 10
27 10 53 0 26 7 57 15 69 15 22 68 53 90 53 7 0 18 7 25 15 7 8 24 15 39 16
14 0 40 9 56 20 17 10 37 21 45 25 8 3 23 10 32 15 10 5 29 9 42 9 13 0 26 5
28 12 2 6 12 9 21 5 12 -4 17 -18 17 -46 0 -22 5 -43 10 -46 6 -3 10 -21 10
-39 0 -18 7 -41 15 -52 8 -10 15 -31 15 -46 0 -15 5 -30 10 -33 6 -3 10 -25
10 -47 0 -34 6 -46 36 -75 l37 -34 33 32 c19 18 34 38 34 44 0 7 9 20 21 31
11 10 29 40 41 66 11 26 26 52 34 59 7 6 32 47 54 92 22 45 54 100 70 122 16
22 29 52 30 67 0 43 40 67 106 65 35 -2 59 2 66 10 7 8 37 13 87 13 45 1 83 6
93 13 17 13 83 16 95 3z"/>
<path d="M3950 6983 c-41 -2 -79 -8 -84 -13 -6 -6 -32 -10 -58 -10 -28 0 -59
-7 -73 -16 -13 -9 -32 -13 -42 -10 -10 3 -31 -1 -47 -9 -15 -8 -38 -15 -51
-15 -12 0 -28 -7 -35 -15 -7 -9 -20 -13 -27 -11 -13 5 -113 -43 -137 -65 -6
-5 -17 -9 -26 -9 -9 0 -27 -11 -40 -25 -13 -14 -31 -25 -41 -25 -9 0 -20 -7
-23 -15 -3 -9 -20 -22 -38 -30 -18 -7 -46 -27 -62 -44 -17 -17 -35 -31 -41
-31 -13 0 -165 -156 -183 -187 -15 -28 -17 -319 -2 -328 6 -3 10 -21 10 -39 0
-18 7 -41 15 -52 15 -20 20 -70 9 -98 -8 -20 -57 -21 -74 -1 -9 11 -33 15 -91
15 -43 0 -81 5 -84 10 -9 14 -142 13 -147 -2 -3 -7 -24 -11 -61 -9 -40 1 -67
-3 -90 -16 -40 -22 -117 -93 -117 -108 0 -6 -11 -22 -25 -35 -14 -13 -25 -31
-25 -40 0 -9 -9 -25 -20 -35 -26 -23 -150 -273 -150 -301 0 -12 -6 -27 -14
-33 -13 -11 -18 -35 -32 -156 -4 -27 -12 -59 -20 -70 -11 -15 -14 -62 -14
-200 0 -160 2 -185 20 -219 25 -51 48 -75 85 -90 17 -7 44 -29 61 -49 18 -19
64 -51 105 -71 122 -60 150 -104 85 -131 -19 -8 -37 -19 -41 -25 -3 -5 -12
-10 -19 -10 -19 0 -239 -219 -270 -269 -24 -38 -26 -49 -26 -153 1 -84 4 -118
15 -132 8 -11 15 -37 15 -57 0 -21 5 -41 10 -44 6 -3 10 -23 10 -43 0 -20 7
-46 15 -56 8 -11 15 -28 15 -37 0 -10 11 -39 25 -65 14 -26 25 -56 25 -67 0
-12 9 -30 19 -41 11 -12 31 -45 46 -73 14 -29 30 -53 35 -53 5 0 12 -11 16
-24 3 -13 21 -39 40 -57 19 -18 34 -38 34 -44 0 -16 156 -175 173 -175 7 0 24
-11 37 -25 22 -24 29 -25 136 -25 64 0 115 4 119 10 3 5 30 10 59 10 36 0 58
5 67 16 7 8 21 13 30 11 10 -3 26 1 36 9 26 19 47 17 69 -7 15 -16 16 -24 6
-39 -7 -11 -12 -35 -12 -54 0 -19 -4 -38 -10 -41 -13 -8 -13 -332 0 -340 6 -3
10 -17 10 -31 0 -34 66 -134 89 -134 6 0 30 -17 54 -38 23 -21 63 -48 89 -60
25 -12 49 -26 53 -32 4 -6 17 -15 28 -21 12 -5 29 -13 37 -18 8 -5 32 -17 52
-25 20 -9 40 -21 43 -26 3 -6 19 -10 35 -10 16 0 32 -4 35 -10 3 -5 19 -10 34
-10 16 0 34 -7 41 -15 8 -9 29 -15 56 -15 23 0 46 -4 49 -10 3 -5 39 -10 79
-10 48 0 79 -5 92 -15 28 -21 276 -21 294 0 7 8 24 15 39 15 27 0 101 64 101
87 0 7 17 32 38 57 52 62 74 95 96 141 23 47 55 85 72 85 11 0 42 -42 73 -99
7 -14 59 -72 115 -129 125 -128 203 -172 300 -172 38 1 68 6 80 15 11 8 41 15
67 15 26 0 51 5 54 10 3 6 22 10 41 10 19 0 46 7 59 16 14 9 31 14 38 11 7 -3
21 1 32 9 10 8 27 14 36 14 15 0 133 54 179 81 8 5 24 13 35 18 11 5 33 23 49
40 17 17 37 31 46 31 9 0 34 18 55 40 21 22 44 40 50 40 20 0 161 155 188 206
28 53 35 98 17 109 -6 3 -10 49 -10 102 0 61 -5 104 -14 121 -22 43 -36 96
-36 135 0 31 4 38 25 43 16 4 34 0 50 -10 17 -11 47 -16 98 -16 40 0 77 -4 83
-9 14 -14 122 -17 136 -3 7 7 39 12 73 12 35 0 75 7 92 15 41 20 144 138 159
181 4 11 15 28 25 39 27 32 149 277 149 302 0 12 5 25 10 28 6 3 10 16 10 29
0 12 7 31 15 42 8 11 15 41 15 71 0 28 5 55 10 58 6 4 10 87 10 215 0 194 -2
212 -21 247 -28 51 -49 73 -68 73 -9 0 -39 23 -66 50 -27 28 -57 50 -67 50
-10 0 -18 5 -18 10 0 6 -8 10 -19 10 -10 0 -24 7 -31 15 -7 8 -18 15 -25 15
-7 0 -27 14 -45 30 -31 29 -32 31 -16 55 9 14 23 25 31 25 25 0 57 22 120 81
33 31 70 60 83 64 12 3 22 12 22 20 0 7 21 37 48 67 26 29 53 63 60 75 15 28
17 269 2 278 -5 3 -10 21 -10 39 0 19 -7 47 -15 62 -8 16 -15 43 -15 61 0 17
-4 35 -10 38 -5 3 -10 17 -10 31 0 13 -11 42 -25 64 -14 22 -25 48 -25 58 0
27 -39 102 -55 109 -8 3 -15 11 -15 18 0 8 -11 27 -25 43 -14 17 -25 35 -25
41 0 7 -18 31 -40 53 -22 23 -40 47 -40 53 0 15 -153 165 -168 165 -7 0 -22
11 -34 25 -21 24 -27 25 -130 25 -81 0 -115 -4 -132 -15 -14 -10 -41 -15 -65
-14 -23 2 -46 -2 -53 -9 -7 -7 -23 -12 -35 -12 -13 0 -34 -7 -46 -15 -31 -20
-48 -5 -54 49 -4 32 -1 53 11 70 23 37 24 365 0 401 -9 13 -13 29 -9 35 8 13
-102 130 -123 130 -8 0 -23 11 -34 25 -11 14 -25 25 -32 25 -21 0 -80 32 -94
52 -7 10 -22 18 -32 18 -10 0 -21 4 -25 9 -7 12 -64 41 -80 41 -7 0 -18 7 -26
16 -7 8 -21 13 -30 11 -10 -3 -26 1 -36 9 -10 7 -30 14 -44 14 -15 0 -32 6
-39 14 -6 9 -23 13 -40 11 -16 -2 -37 3 -47 11 -11 8 -45 13 -93 14 -44 0 -81
5 -88 12 -14 14 -282 12 -296 -3 -6 -5 -21 -9 -35 -9 -27 0 -81 -45 -81 -67 0
-8 -22 -38 -50 -67 -27 -29 -50 -57 -50 -63 0 -5 -11 -20 -25 -33 -14 -13 -25
-31 -25 -41 0 -9 -7 -22 -15 -29 -8 -7 -15 -18 -15 -25 0 -17 -33 -45 -53 -45
-9 0 -19 11 -23 24 -3 13 -17 34 -30 47 -13 12 -24 27 -24 34 0 6 -27 37 -60
70 -33 33 -60 65 -60 72 0 8 -10 17 -22 22 -13 5 -41 28 -63 50 -33 34 -110
86 -118 79 -1 -1 -36 -4 -77 -5z m1291 -550 c52 -25 130 -107 142 -150 5 -21
12 -77 14 -125 4 -79 2 -91 -21 -133 -14 -25 -26 -57 -26 -70 0 -13 -4 -27
-10 -30 -5 -3 -10 -15 -10 -26 0 -11 -11 -40 -25 -65 -14 -25 -25 -55 -25 -67
0 -12 -7 -31 -15 -41 -8 -11 -15 -37 -15 -57 0 -21 -4 -41 -10 -44 -5 -3 -10
-28 -10 -54 0 -26 -7 -56 -15 -67 -32 -42 -6 -109 72 -186 l48 -47 83 -2 c52
-1 87 2 95 10 6 6 30 11 53 11 25 0 47 6 54 15 7 9 20 13 27 11 8 -3 38 8 68
24 30 16 60 27 68 24 7 -2 20 2 27 11 7 8 21 15 31 15 11 0 19 5 19 10 0 6 8
10 19 10 10 0 24 7 31 15 7 8 21 15 31 15 10 0 21 5 24 10 3 6 16 10 28 10 12
0 31 7 41 15 27 20 172 20 212 0 16 -8 52 -36 80 -62 79 -75 106 -151 78 -222
-8 -18 -14 -41 -14 -50 0 -10 -11 -28 -25 -41 -14 -13 -25 -30 -25 -38 0 -19
-29 -52 -46 -52 -7 0 -25 -10 -41 -22 -34 -28 -63 -46 -83 -54 -8 -3 -23 -10
-32 -15 -10 -5 -24 -9 -31 -9 -20 0 -288 -137 -312 -160 -12 -11 -26 -20 -31
-20 -12 0 -105 -96 -127 -132 -21 -33 -22 -96 -3 -124 8 -11 16 -33 18 -49 2
-23 11 -34 39 -47 19 -9 41 -23 48 -32 8 -9 19 -16 25 -16 7 0 23 -11 36 -25
13 -14 31 -25 41 -25 9 0 22 -7 29 -15 7 -8 22 -15 35 -15 24 0 81 -26 90 -41
4 -5 19 -9 35 -9 16 0 32 -4 35 -10 3 -5 14 -10 24 -10 10 0 24 -7 31 -15 7
-8 22 -15 34 -15 26 0 136 -54 151 -74 6 -7 20 -16 33 -20 12 -4 25 -18 28
-31 3 -13 12 -26 19 -28 7 -3 22 -25 34 -49 16 -35 21 -63 21 -129 l0 -85 -58
-57 c-32 -31 -65 -57 -74 -57 -9 0 -20 -4 -23 -10 -3 -5 -23 -10 -44 -10 -22
0 -44 -6 -51 -15 -16 -19 -34 -19 -50 0 -8 9 -29 15 -56 15 -23 0 -46 5 -49
10 -3 6 -19 10 -34 10 -16 0 -34 7 -41 15 -7 8 -23 15 -36 15 -25 0 -55 14
-86 39 -10 7 -24 11 -32 8 -8 -3 -22 1 -33 8 -10 8 -30 15 -44 15 -15 0 -32 6
-38 14 -6 7 -30 14 -54 14 -23 1 -43 6 -45 11 -2 7 -43 11 -106 11 l-102 0
-51 -52 c-77 -81 -100 -142 -68 -184 8 -10 15 -36 15 -56 0 -20 5 -40 10 -43
6 -3 10 -22 10 -41 0 -19 11 -55 25 -80 14 -25 25 -53 25 -62 0 -10 23 -62 50
-116 28 -54 50 -106 50 -115 0 -9 7 -25 15 -35 8 -10 12 -23 9 -28 -3 -5 1
-20 10 -33 20 -30 20 -94 1 -119 -8 -11 -15 -30 -15 -42 0 -13 -4 -26 -10 -29
-5 -3 -10 -14 -10 -24 0 -10 -27 -43 -59 -74 l-60 -57 -84 0 c-63 0 -88 4 -97
15 -7 8 -20 15 -29 15 -10 0 -28 11 -41 25 -13 14 -32 25 -42 25 -11 0 -18 7
-18 19 0 10 -7 24 -15 31 -9 7 -38 60 -66 116 -28 57 -55 106 -60 109 -5 4 -9
16 -9 29 0 26 -83 198 -105 216 -8 7 -15 17 -15 23 0 5 -18 29 -40 53 -22 24
-40 48 -40 53 0 22 -65 41 -138 41 -91 0 -145 -21 -166 -66 -8 -16 -24 -38
-36 -49 -11 -10 -20 -24 -20 -32 0 -7 -11 -31 -25 -53 -14 -22 -25 -44 -25
-50 0 -6 -11 -28 -25 -50 -14 -22 -25 -49 -25 -59 0 -11 -11 -40 -25 -65 -14
-25 -25 -54 -25 -65 0 -11 -4 -23 -10 -26 -5 -3 -10 -16 -10 -28 0 -26 -31
-90 -56 -118 -10 -11 -22 -29 -28 -41 -6 -13 -22 -28 -34 -34 -13 -6 -33 -21
-46 -33 -12 -11 -33 -21 -47 -21 -13 0 -33 -7 -43 -15 -27 -20 -91 -19 -129 2
-58 32 -147 125 -147 153 0 14 -5 31 -11 37 -16 16 -18 151 -3 171 8 9 14 28
14 42 0 14 7 34 15 44 8 10 12 23 9 27 -3 5 6 28 19 51 13 24 26 54 29 68 7
30 27 88 39 112 5 10 9 28 9 40 0 13 7 32 15 42 8 11 15 41 15 67 0 26 5 51
10 54 6 3 10 37 10 74 0 55 -4 71 -20 86 -11 10 -22 26 -25 36 -4 11 -12 19
-19 19 -7 0 -23 12 -37 26 -23 24 -27 25 -114 21 -104 -5 -181 -19 -197 -35
-7 -7 -23 -12 -38 -13 -14 0 -38 -9 -55 -20 -16 -10 -37 -21 -45 -25 -8 -3
-23 -10 -32 -15 -10 -5 -29 -9 -42 -9 -14 0 -27 -4 -31 -9 -7 -12 -64 -41 -80
-41 -7 0 -18 -7 -25 -15 -7 -8 -25 -15 -41 -15 -15 0 -31 -4 -34 -10 -3 -5
-42 -10 -85 -10 -43 0 -82 5 -85 10 -3 6 -18 10 -33 10 -21 0 -42 15 -83 57
-30 32 -62 72 -72 90 -21 38 -22 111 -2 137 8 11 15 29 15 40 0 18 142 176
165 184 31 11 75 34 80 42 3 6 17 10 31 10 22 0 37 5 84 31 18 10 70 35 90 43
8 3 29 15 45 25 17 11 38 20 47 20 9 1 25 12 36 26 11 14 26 25 34 25 8 0 25
11 38 25 13 14 30 25 38 25 25 0 52 31 52 61 0 15 5 31 10 34 6 3 10 30 10 60
0 30 -4 57 -10 60 -5 3 -10 19 -10 34 0 37 -82 111 -123 111 -8 0 -22 9 -32
20 -24 26 -132 80 -161 80 -13 0 -25 4 -29 9 -9 15 -66 41 -89 41 -12 0 -29 7
-39 14 -10 8 -26 12 -36 9 -9 -2 -23 3 -30 11 -8 9 -19 16 -26 16 -38 0 -176
122 -213 187 -18 33 -15 163 4 204 22 45 84 109 105 109 9 0 22 7 29 15 7 8
28 15 47 15 18 0 44 7 57 15 20 13 25 13 42 0 10 -8 35 -15 54 -15 19 0 43 -7
53 -14 10 -8 26 -12 36 -9 9 2 23 -3 30 -11 8 -9 24 -16 37 -16 12 0 44 -11
70 -25 26 -14 57 -25 70 -25 13 0 26 -4 29 -10 3 -5 16 -10 29 -10 12 0 31 -7
42 -15 10 -8 36 -15 56 -15 20 0 40 -4 43 -10 3 -6 51 -10 109 -10 90 0 105 2
121 20 10 11 24 20 31 20 8 0 20 13 28 28 8 16 22 34 30 41 18 15 23 145 6
156 -5 3 -10 22 -10 41 0 19 -7 46 -16 59 -9 13 -13 28 -10 33 3 5 -1 18 -9
28 -8 10 -15 28 -15 40 0 11 -22 64 -50 118 -27 54 -50 104 -50 111 0 8 -11
35 -25 61 -14 26 -25 62 -25 80 0 18 -4 36 -10 39 -5 3 -10 17 -10 30 0 13 5
27 10 30 6 3 10 21 10 38 0 45 32 103 87 159 l47 48 92 0 c95 0 134 -12 169
-50 10 -11 25 -20 33 -20 20 0 52 -29 52 -47 0 -7 11 -31 25 -53 14 -22 25
-43 25 -47 0 -11 79 -166 91 -177 5 -6 9 -20 9 -31 0 -24 35 -101 50 -110 6
-4 22 -30 36 -58 14 -29 51 -78 82 -109 l56 -58 87 0 c103 0 131 12 176 72 40
54 143 255 143 280 0 10 11 36 25 58 14 22 25 48 25 58 0 11 11 40 25 66 14
26 25 56 25 68 0 12 33 54 82 104 63 65 88 84 109 84 15 0 31 5 34 10 10 16
109 12 146 -7z"/>
<path d="M4360 4995 c-7 -8 -22 -15 -35 -15 -44 0 -141 -59 -203 -124 -34 -35
-62 -70 -62 -78 0 -7 -12 -24 -25 -37 -15 -14 -23 -30 -20 -40 3 -10 -2 -26
-10 -37 -8 -10 -15 -35 -15 -55 0 -19 -5 -40 -12 -47 -13 -13 -12 -122 3 -136
5 -6 9 -28 9 -50 0 -23 7 -50 15 -60 8 -11 15 -28 15 -38 0 -10 6 -28 12 -41
18 -32 160 -177 174 -177 6 0 17 -7 24 -15 7 -8 20 -15 30 -15 10 0 23 -7 30
-15 7 -9 20 -13 29 -10 10 3 26 -2 37 -10 27 -20 251 -21 277 0 11 7 25 11 33
8 8 -3 22 1 32 8 26 21 60 39 75 39 7 0 47 35 88 78 75 76 149 198 134 221 -3
6 1 24 10 40 20 40 20 168 0 207 -8 16 -12 36 -10 45 10 30 -62 152 -127 216
-64 63 -163 123 -204 123 -12 0 -27 7 -34 15 -10 12 -38 15 -135 15 -97 0
-125 -3 -135 -15z"/>
</g>
</svg>
